<svg width="98" height="97" xmlns="http://www.w3.org/2000/svg" xmlns:xlink="http://www.w3.org/1999/xlink" xmlns:svgjs="http://svgjs.com/svgjs" viewBox="211 4250 98 97"><svg width="9" height="10" xmlns="http://www.w3.org/2000/svg" xmlns:xlink="http://www.w3.org/1999/xlink" xmlns:svgjs="http://svgjs.com/svgjs" viewBox="0 0.5 9 9" fill="#2b8fe5" x="250" y="4318"><svg xmlns="http://www.w3.org/2000/svg" xmlns:xlink="http://www.w3.org/1999/xlink" width="9" height="10" viewBox="0.565 0.833 8.223 8.223"><path paint-order="stroke fill markers" fill-rule="evenodd" d="M1.553.833L.565 3.794a8.372 8.372 0 0 1 5.262 5.262l2.96-.988A11.472 11.472 0 0 0 1.554.833z"/></svg></svg><svg width="41" height="13" xmlns="http://www.w3.org/2000/svg" xmlns:xlink="http://www.w3.org/1999/xlink" xmlns:svgjs="http://svgjs.com/svgjs" viewBox="0 0.192 41 12.615" fill="#f0c331" x="240" y="4256"><svg xmlns="http://www.w3.org/2000/svg" xmlns:xlink="http://www.w3.org/1999/xlink" width="41" height="13" viewBox="0.125 0.25 40.624 12.5"><path paint-order="stroke fill markers" fill-rule="evenodd" d="M20.437 12.75c7.542 0 20.312-1.316 20.312-6.25 0-4.933-12.77-6.25-20.312-6.25C12.895.25.125 1.567.125 6.5c0 4.934 12.77 6.25 20.312 6.25zm0-9.375c10.101 0 16.257 1.945 17.14 3.125-.882 1.18-7.039 3.125-17.14 3.125C10.335 9.625 4.178 7.68 3.295 6.5c.883-1.18 7.04-3.125 17.142-3.125z"/></svg></svg><svg width="54" height="26" xmlns="http://www.w3.org/2000/svg" xmlns:xlink="http://www.w3.org/1999/xlink" xmlns:svgjs="http://svgjs.com/svgjs" viewBox="0 0.294 54 25.412" fill="#f0c331" x="233" y="4250"><svg xmlns="http://www.w3.org/2000/svg" xmlns:xlink="http://www.w3.org/1999/xlink" width="54" height="26" viewBox="0.874 0 53.124 25"><path paint-order="stroke fill markers" fill-rule="evenodd" d="M27.437 25c21.952 0 26.561-6.797 26.561-12.5S49.39 0 27.437 0C5.484 0 .874 6.797.874 12.5S5.484 25 27.437 25zm0-21.875c8.753 0 23.437 1.22 23.437 9.375 0 8.156-14.684 9.375-23.437 9.375-8.755 0-23.439-1.219-23.439-9.375s14.684-9.375 23.439-9.375z"/></svg></svg><svg width="98" height="69" xmlns="http://www.w3.org/2000/svg" xmlns:xlink="http://www.w3.org/1999/xlink" xmlns:svgjs="http://svgjs.com/svgjs" viewBox="0.386 0 97.227 69" fill="#2b8fe5" x="211" y="4278"><svg xmlns="http://www.w3.org/2000/svg" width="98" height="69" viewBox="1 0.127 96.876 68.75"><path paint-order="stroke fill markers" fill-rule="evenodd" d="M97.874 18.876a3.13 3.13 0 0 0-3.124-3.125H75.175a7.778 7.778 0 0 0-6.988 4.32l-1.867 3.735A6.225 6.225 0 0 0 61.937 22h-3.125V7.94a4.691 4.691 0 0 0-4.687-4.687c-.617 0-1.203.125-1.743.343-.539-1.992-2.347-3.468-4.507-3.468a4.691 4.691 0 0 0-4.688 4.687v14.352a4.618 4.618 0 0 0-1.562-.289c-2.16 0-3.965 1.477-4.508 3.469a4.613 4.613 0 0 0-1.742-.344c-1.2 0-2.286.469-3.118 1.211l-1.57-3.14a7.773 7.773 0 0 0-6.988-4.32H4.125A3.129 3.129 0 0 0 1 18.876c0 2.352 1.32 4.38 3.242 5.445a3.04 3.04 0 0 0-.117.805c0 2.352 1.32 4.38 3.242 5.445-.07.258-.117.524-.117.805 0 2.352 1.32 4.379 3.242 5.445-.07.258-.117.524-.117.805a6.258 6.258 0 0 0 6.25 6.25h14.887a30.316 30.316 0 0 0 4.14 9.66 3.117 3.117 0 0 0-1.84 2.84v9.375a3.13 3.13 0 0 0 3.126 3.125h25a3.13 3.13 0 0 0 3.125-3.125v-9.375a3.117 3.117 0 0 0-1.84-2.84 30.186 30.186 0 0 0 4.14-9.66h14.888a6.258 6.258 0 0 0 6.25-6.25c0-.281-.047-.547-.118-.805 1.922-1.066 3.243-3.093 3.243-5.445 0-.281-.047-.547-.118-.805 1.922-1.066 3.243-3.093 3.243-5.445a3.04 3.04 0 0 0-.118-.805c1.922-1.066 3.243-3.093 3.243-5.445h-.002zm-43.75-12.5c.864 0 1.563.7 1.563 1.563V22h-3.125V7.939c0-.864.7-1.563 1.562-1.563zm-7.812-1.562a1.562 1.562 0 1 1 3.125 0v17.188h-3.125V4.814zm-6.25 18.75a1.562 1.562 0 1 1 3.125 0v9.375a1.562 1.562 0 1 1-3.125 0v-9.375zm-6.25 3.125a1.562 1.562 0 1 1 3.125 0v6.25a1.562 1.562 0 1 1-3.125 0v-6.25zM16.624 40.75a3.135 3.135 0 0 1-3.129-3.125h9.379V34.5h-9.375a3.135 3.135 0 0 1-3.129-3.125h9.379v-3.125h-9.375a3.135 3.135 0 0 1-3.129-3.125h9.379V22H7.249a3.13 3.13 0 0 1-3.125-3.125h19.574c1.785 0 3.39.992 4.191 2.59l2.797 5.59v9.937c0 1.262.106 2.512.266 3.754l-14.328.004zm45.312 25h-25v-9.375h25v9.375zm3.125-28.754c0 5.855-1.953 11.59-5.48 16.254H39.29a27.028 27.028 0 0 1-5.464-15.906 4.6 4.6 0 0 0 1.547.281 4.653 4.653 0 0 0 3.125-1.219 4.653 4.653 0 0 0 3.125 1.219 4.691 4.691 0 0 0 4.687-4.688v-1.71c.77.558 1.64.996 2.606 1.238l5.875 1.469a33.892 33.892 0 0 0-3.547 8.777l-.196.785 3.032.758.195-.785c.863-3.45 2.3-6.703 4.273-9.664l1.23-1.844-10.104-2.524a4.442 4.442 0 0 1-3.364-4.312h15.625a3.13 3.13 0 0 1 3.125 3.125v8.746zm26.562-14.996h-9.375v3.125h9.375a3.13 3.13 0 0 1-3.125 3.125h-9.375v3.125h9.375a3.129 3.129 0 0 1-3.125 3.125h-9.375v3.125h9.375a3.13 3.13 0 0 1-3.125 3.125H67.92a29.39 29.39 0 0 0 .266-3.754v-8.746c0-.34-.047-.668-.102-.992l2.895-5.79a4.666 4.666 0 0 1 4.195-2.594h19.574a3.13 3.13 0 0 1-3.125 3.126z"/></svg></svg></svg>