<svg width="72" height="97" xmlns="http://www.w3.org/2000/svg" xmlns:xlink="http://www.w3.org/1999/xlink" xmlns:svgjs="http://svgjs.com/svgjs" viewBox="504 4249 72 97"><svg width="72" height="97" xmlns="http://www.w3.org/2000/svg" xmlns:xlink="http://www.w3.org/1999/xlink" xmlns:svgjs="http://svgjs.com/svgjs" viewBox="0.15 0 71.699 97" fill="#2b8fe5" x="504" y="4249"><svg xmlns="http://www.w3.org/2000/svg" xmlns:xlink="http://www.w3.org/1999/xlink" width="72" height="97" viewBox="1 1 70.836 95.832"><path paint-order="stroke fill markers" fill-rule="evenodd" d="M71.836 36.418C71.836 16.89 55.945 1 36.418 1S1 16.89 1 36.418c0 12.277 6.223 23.473 16.695 30l.027 28.332c0 .777.418 1.472 1.11 1.832.668.36 1.5.305 2.14-.11L36.417 86.14l15.5 10.333c.36.222.75.359 1.168.359.332 0 .668-.082.973-.25a2.088 2.088 0 0 0 1.11-1.832l-.028-28.332c10.473-6.528 16.695-17.723 16.695-30zm-34.25 45.5c-.36-.223-.75-.36-1.168-.36-.418 0-.805.11-1.168.36l-13.36 8.945-.026-22.195a35.029 35.029 0 0 0 29.109 0L51 90.863l-13.414-8.945zm-1.168-14.25c-17.223 0-31.25-14.027-31.25-31.25s14.027-31.25 31.25-31.25 31.25 14.027 31.25 31.25-14.027 31.25-31.25 31.25z"/></svg></svg><svg width="39" height="37" xmlns="http://www.w3.org/2000/svg" xmlns:xlink="http://www.w3.org/1999/xlink" xmlns:svgjs="http://svgjs.com/svgjs" viewBox="0.124 0 38.751 37" fill="#f0c331" x="521" y="4265"><svg xmlns="http://www.w3.org/2000/svg" width="39" height="37" viewBox="0.402 0.589 37.995 36.278"><path paint-order="stroke fill markers" fill-rule="evenodd" d="M36.641 12.863l-10.61-1.555-4.749-9.61C20.95 1.032 20.227.59 19.422.59c-.804 0-1.527.418-1.859 1.11l-4.75 9.61-10.609 1.554A2.118 2.118 0 0 0 .51 14.28c-.25.75-.055 1.582.527 2.14l7.668 7.473L6.9 34.449c-.14.777.196 1.582.832 2.027.36.278.805.391 1.223.391.332 0 .668-.082.973-.25l9.473-5 9.472 4.973c.696.359 1.555.304 2.196-.168.64-.473.972-1.25.832-2.028L30.095 23.84l7.668-7.472c.582-.555.777-1.36.527-2.141a2.05 2.05 0 0 0-1.648-1.363h-.001zm-10.223 8.805a2.054 2.054 0 0 0-.61 1.831l1.278 7.473-6.723-3.527a2.184 2.184 0 0 0-1.945 0l-6.723 3.527 1.277-7.473c.11-.668-.109-1.359-.609-1.831l-5.445-5.305 7.5-1.082c.668-.11 1.277-.528 1.554-1.14l3.446-6.806 3.36 6.805c.304.61.89 1.055 1.554 1.14l7.527 1.083-5.441 5.305z"/></svg></svg></svg>