<svg width="82" height="97" xmlns="http://www.w3.org/2000/svg" xmlns:xlink="http://www.w3.org/1999/xlink" xmlns:svgjs="http://svgjs.com/svgjs" viewBox="780 4250 82 97"><svg width="6" height="13" xmlns="http://www.w3.org/2000/svg" xmlns:xlink="http://www.w3.org/1999/xlink" xmlns:svgjs="http://svgjs.com/svgjs" viewBox="0.402 0 5.196 13" fill="#f0c331" stroke-miterlimit="100" stroke="#092772" x="818" y="4250"><svg xmlns="http://www.w3.org/2000/svg" xmlns:xlink="http://www.w3.org/1999/xlink" width="6" height="13" viewBox="0.255 0 4.933 12.341"><path paint-order="stroke fill markers" fill-rule="evenodd" d="M2.721 12.341A2.475 2.475 0 0 0 5.188 9.87V2.466a2.466 2.466 0 1 0-4.933 0V9.87A2.475 2.475 0 0 0 2.72 12.34s0 0 0 0z"/></svg></svg><svg width="13" height="6" xmlns="http://www.w3.org/2000/svg" xmlns:xlink="http://www.w3.org/1999/xlink" xmlns:svgjs="http://svgjs.com/svgjs" viewBox="0 0.402 13 5.196" fill="#f0c331" stroke-miterlimit="100" stroke="#092772" x="780" y="4288"><svg xmlns="http://www.w3.org/2000/svg" xmlns:xlink="http://www.w3.org/1999/xlink" width="13" height="6" viewBox="0 0.254 12.341 4.933"><path paint-order="stroke fill markers" fill-rule="evenodd" d="M12.341 2.721A2.474 2.474 0 0 0 9.871.254H2.465a2.466 2.466 0 1 0 0 4.933H9.87a2.474 2.474 0 0 0 2.471-2.467v.001z"/></svg></svg><svg width="13" height="6" xmlns="http://www.w3.org/2000/svg" xmlns:xlink="http://www.w3.org/1999/xlink" xmlns:svgjs="http://svgjs.com/svgjs" viewBox="0 0.402 13 5.196" fill="#f0c331" stroke-miterlimit="100" stroke="#092772" x="849" y="4288"><svg xmlns="http://www.w3.org/2000/svg" xmlns:xlink="http://www.w3.org/1999/xlink" width="13" height="6" viewBox="0.101 0.255 12.341 4.933"><path paint-order="stroke fill markers" fill-rule="evenodd" d="M9.976.255H2.572a2.466 2.466 0 1 0 0 4.932h7.404a2.466 2.466 0 1 0 0-4.932z"/></svg></svg><svg width="11" height="11" xmlns="http://www.w3.org/2000/svg" xmlns:xlink="http://www.w3.org/1999/xlink" xmlns:svgjs="http://svgjs.com/svgjs" viewBox="0 0 11 10.999" fill="#f0c331" stroke-miterlimit="100" stroke="#092772" x="791" y="4261"><svg xmlns="http://www.w3.org/2000/svg" xmlns:xlink="http://www.w3.org/1999/xlink" width="11" height="11" viewBox="0.071 0.071 10.303 10.303"><path paint-order="stroke fill markers" fill-rule="evenodd" d="M6.163 9.656a2.471 2.471 0 0 0 3.494-3.494L4.413.93v.004A2.474 2.474 0 0 0 .79.79 2.473 2.473 0 0 0 .072 2.63c.023.69.338 1.333.86 1.782l5.23 5.243z"/></svg></svg><svg width="11" height="11" xmlns="http://www.w3.org/2000/svg" xmlns:xlink="http://www.w3.org/1999/xlink" xmlns:svgjs="http://svgjs.com/svgjs" fill="#f0c331" stroke-miterlimit="100" stroke="#092772" x="840" y="4310"><svg xmlns="http://www.w3.org/2000/svg" xmlns:xlink="http://www.w3.org/1999/xlink" width="11" height="11" viewBox="0.064 0.064 10.307 10.307"><path paint-order="stroke fill markers" fill-rule="evenodd" d="M4.28.786a2.475 2.475 0 0 0-3.494 0 2.474 2.474 0 0 0 0 3.494l5.243 5.233V9.51a2.475 2.475 0 0 0 3.623.143A2.474 2.474 0 0 0 9.51 6.03L4.279.786z"/></svg></svg><svg width="11" height="11" xmlns="http://www.w3.org/2000/svg" xmlns:xlink="http://www.w3.org/1999/xlink" xmlns:svgjs="http://svgjs.com/svgjs" viewBox="0 0 11 10.999" fill="#f0c331" stroke-miterlimit="100" stroke="#092772" x="840" y="4261"><svg xmlns="http://www.w3.org/2000/svg" xmlns:xlink="http://www.w3.org/1999/xlink" width="11" height="11" viewBox="0.068 0.071 10.303 10.303"><path paint-order="stroke fill markers" fill-rule="evenodd" d="M2.54 10.374c.652 0 1.276-.26 1.74-.718l5.233-5.242h-.005A2.475 2.475 0 0 0 9.652.79 2.473 2.473 0 0 0 7.81.072a2.456 2.456 0 0 0-1.781.86L.786 6.169v-.005a2.472 2.472 0 0 0 1.754 4.21s0 0 0 0z"/></svg></svg><svg width="11" height="11" xmlns="http://www.w3.org/2000/svg" xmlns:xlink="http://www.w3.org/1999/xlink" xmlns:svgjs="http://svgjs.com/svgjs" fill="#f0c331" stroke-miterlimit="100" stroke="#092772" x="791" y="4310"><svg xmlns="http://www.w3.org/2000/svg" xmlns:xlink="http://www.w3.org/1999/xlink" width="11" height="11" viewBox="0.071 0.064 10.307 10.307"><path paint-order="stroke fill markers" fill-rule="evenodd" d="M6.163.786L.929 6.029h.005A2.474 2.474 0 0 0 .79 9.652a2.475 2.475 0 0 0 3.623-.143l5.243-5.234v.005a2.474 2.474 0 0 0 0-3.494 2.475 2.475 0 0 0-3.493 0s0 0 0 0z"/></svg></svg><svg width="45" height="69" xmlns="http://www.w3.org/2000/svg" xmlns:xlink="http://www.w3.org/1999/xlink" xmlns:svgjs="http://svgjs.com/svgjs" viewBox="0 0.114 45 68.772" fill="#2b8fe5" stroke-miterlimit="100" stroke="#092772" x="798" y="4268"><svg xmlns="http://www.w3.org/2000/svg" xmlns:xlink="http://www.w3.org/1999/xlink" width="45" height="69" viewBox="0.498 0.514 44.408 67.867"><path paint-order="stroke fill markers" fill-rule="evenodd" d="M37.529 6.173A22.215 22.215 0 0 0 22.72.513 22.22 22.22 0 0 0 .644 20.256a22.111 22.111 0 0 0 5.16 16.904 9.433 9.433 0 0 1 2.11 6.169v2.84a12.344 12.344 0 0 0 3.701 8.798v2.308c0 6.132 4.975 11.106 11.106 11.106s11.106-4.974 11.106-11.106v-2.308a12.344 12.344 0 0 0 3.702-8.797v-2.976a9.521 9.521 0 0 1 2.133-6.168 22.227 22.227 0 0 0 5.192-15.859 22.233 22.233 0 0 0-7.311-14.992h-.014zm-7.751 45.792c-.306.241-.625.459-.963.653-.314.171-.647.32-.985.444l-.222.074a6.776 6.776 0 0 1-1.014.273h-.236.005a6.7 6.7 0 0 1-1.176.162h-4.932a6.833 6.833 0 0 1-1.11-.102h-.237a7.02 7.02 0 0 1-1.013-.268l-.223-.074a7.865 7.865 0 0 1-.985-.444 8.586 8.586 0 0 1-.963-.657 7.408 7.408 0 0 1-2.753-4.627 31.73 31.73 0 0 0 9.75 1.235c3.295.097 6.58-.32 9.75-1.235a7.417 7.417 0 0 1-2.693 4.567s0 0 0 0zM22.72 63.442a6.167 6.167 0 0 1-6.168-5.493l.42.111.58.148.48.088c.223 0 .445.074.667.111H26.673c.222 0 .444 0 .666-.11l.482-.089.578-.148.421-.111h-.005a6.165 6.165 0 0 1-6.094 5.493s0 0 0 0zM35.9 33.826a14.271 14.271 0 0 0-3.309 8.084c-.356.347-2.318 1.791-9.87 1.791s-9.565-1.444-9.87-1.79a14.113 14.113 0 0 0-3.249-8.01A17.267 17.267 0 0 1 5.47 22.428a17.25 17.25 0 0 1 4.475-11.346A17.242 17.242 0 0 1 20.796 5.52c.639-.06 1.282-.084 1.925-.075a17.054 17.054 0 0 1 11.5 4.406 17.238 17.238 0 0 1 5.69 11.647A17.268 17.268 0 0 1 35.9 33.826s0 0 0 0z"/></svg></svg><svg width="23" height="6" xmlns="http://www.w3.org/2000/svg" xmlns:xlink="http://www.w3.org/1999/xlink" xmlns:svgjs="http://svgjs.com/svgjs" viewBox="0 0.444 23 5.113" fill="#f0c331" stroke-miterlimit="100" stroke="#092772" x="809" y="4341"><svg xmlns="http://www.w3.org/2000/svg" xmlns:xlink="http://www.w3.org/1999/xlink" width="23" height="6" viewBox="0.615 0.312 22.212 4.937"><path paint-order="stroke fill markers" fill-rule="evenodd" d="M20.36.312H3.083a2.47 2.47 0 0 0 0 4.938H20.36a2.468 2.468 0 0 0 0-4.938z"/></svg></svg><svg width="21" height="15" xmlns="http://www.w3.org/2000/svg" xmlns:xlink="http://www.w3.org/1999/xlink" xmlns:svgjs="http://svgjs.com/svgjs" viewBox="0.539 0 19.922 15" fill="#f0c331" stroke-miterlimit="100" stroke="#092772" x="810" y="4287"><svg xmlns="http://www.w3.org/2000/svg" width="21" height="15" viewBox="0.984 0.152 19.473 14.662"><path paint-order="stroke fill markers" fill-rule="evenodd" d="M16.385.745l-8.13 8.121-3.198-3.183a2.469 2.469 0 0 0-3.48 3.48L6.515 14.1a2.475 2.475 0 0 0 3.48 0l9.87-9.87v-.005a2.469 2.469 0 0 0-3.48-3.48s0 0 0 0z"/></svg></svg></svg>