<svg width="94" height="94" xmlns="http://www.w3.org/2000/svg" xmlns:xlink="http://www.w3.org/1999/xlink" xmlns:svgjs="http://svgjs.com/svgjs" viewBox="1053 4253 94 94"><svg width="36" height="27" xmlns="http://www.w3.org/2000/svg" xmlns:xlink="http://www.w3.org/1999/xlink" xmlns:svgjs="http://svgjs.com/svgjs" viewBox="0 0.472 36 26.057" fill="#2b8fe5" x="1060" y="4319"><svg xmlns="http://www.w3.org/2000/svg" xmlns:xlink="http://www.w3.org/1999/xlink" width="36" height="27" viewBox="0.469 0.61 35.166 25.453"><path paint-order="stroke fill markers" fill-rule="evenodd" d="M26.977 26.063c-1.64 0-3.227-.633-4.477-1.785a6.592 6.592 0 0 1-1.371-2.094 6.3 6.3 0 0 1-3.922 1.343 6.283 6.283 0 0 1-4.48-1.84 6.284 6.284 0 0 1-1.375-2.054l-.098.098a6.276 6.276 0 0 1-4.464 1.828 6.284 6.284 0 0 1-4.481-1.84 6.283 6.283 0 0 1-1.84-4.48c0-1.704.652-3.293 1.84-4.481l9.727-9.586a1.948 1.948 0 0 1 2.75.012L25.91 12.305l.02.02 4.448 4.585a2.92 2.92 0 0 0 1.864.7c.273 0 .535-.043.773-.133a1.955 1.955 0 0 1 2.02 3.246l-3.649 3.508a6.198 6.198 0 0 1-4.41 1.831zm-1.762-4.602c.512.45 1.137.696 1.762.696.441 0 1.09-.122 1.664-.696l.027-.027.625-.602a6.923 6.923 0 0 1-1.554-1.035 2.324 2.324 0 0 1-.106-.102l-2.03-2.093a1.92 1.92 0 0 1-.395.566c-.961.961-.754 2.41.007 3.293zm-11.102-9.164c.504 0 1.012.195 1.395.582.75.766.746 1.992-.012 2.75a2.313 2.313 0 0 0-.695 1.645c0 .613.246 1.199.695 1.644.45.45 1.059.696 1.715.696.66 0 1.27-.247 1.715-.696l3.52-3.52a1.92 1.92 0 0 1 .62-.417l-9.668-9.664-8.336 8.214a2.397 2.397 0 0 0-.683 1.707c0 .66.246 1.27.695 1.715.45.45 1.059.696 1.715.696.66 0 1.27-.247 1.715-.696l.023-.023 4.223-4.082c.383-.368.875-.551 1.363-.551z"/></svg></svg><svg width="22" height="20" xmlns="http://www.w3.org/2000/svg" xmlns:xlink="http://www.w3.org/1999/xlink" xmlns:svgjs="http://svgjs.com/svgjs" viewBox="0.04 0 21.921 20" fill="#2b8fe5" x="1091" y="4327"><svg xmlns="http://www.w3.org/2000/svg" xmlns:xlink="http://www.w3.org/1999/xlink" width="22" height="20" viewBox="0.433 0.636 20.95 19.114"><path paint-order="stroke fill markers" fill-rule="evenodd" d="M6.767 19.75a6.285 6.285 0 0 1-4.48-1.84C.27 15.894-.156 12.648 1.274 10.195a1.96 1.96 0 0 1 1.05-.863c.118-.055.391-.246.524-.379.938-.938.953-2.465.031-3.55a1.955 1.955 0 0 1 .168-2.7 1.956 1.956 0 0 1 2.703.055l4.504 4.504a2.313 2.313 0 0 0 1.664.695c.63 0 1.25-.246 1.762-.695.758-.883.969-2.333.004-3.293-.762-.762-.762-2 0-2.762s2-.762 2.762 0l3.52 3.52c.12.12.296.296.378.359.535.285.91.805 1.012 1.406a1.961 1.961 0 0 1-.535 1.692l-9.575 9.714a6.247 6.247 0 0 1-4.48 1.852zm-2.316-7.133c-.274.863-.051 1.879.597 2.531.45.45 1.059.696 1.715.696.66 0 1.27-.247 1.715-.696l3.238-3.285a6.22 6.22 0 0 1-4.222-1.836l-.465-.465a6.422 6.422 0 0 1-1.418 2.156 6.537 6.537 0 0 1-1.16.899z"/></svg></svg><svg width="65" height="47" xmlns="http://www.w3.org/2000/svg" xmlns:xlink="http://www.w3.org/1999/xlink" xmlns:svgjs="http://svgjs.com/svgjs" viewBox="0 0.307 65 46.386" fill="#2b8fe5" x="1065" y="4294"><svg xmlns="http://www.w3.org/2000/svg" xmlns:xlink="http://www.w3.org/1999/xlink" width="65" height="47" viewBox="0.547 0.974 63.888 45.592"><path paint-order="stroke fill markers" fill-rule="evenodd" d="M27.134 46.566a6.312 6.312 0 0 1-4.477-1.852l-.02-.02-4.495-4.636L2.806 24.722a1.929 1.929 0 0 1-.496-.844L.622 17.964a1.956 1.956 0 0 1 .496-1.918L15.056 2.108c.762-.762 2-.762 2.762 0 .09.09.258.196.363.23.114.04.223.086.324.145 2.907 1.606 7.586.32 12.11-.922.652-.18 1.3-.355 1.937-.523a1.955 1.955 0 0 1 1.879.508L55.146 22.26c.09.09.168.183.234.285.102.07.196.148.285.234l3.387 3.387 3.504 3.367.027.027a6.342 6.342 0 0 1 0 8.957 6.342 6.342 0 0 1-8.945.012l-.094-.09a6.388 6.388 0 0 1-1.379 2.05 6.344 6.344 0 0 1-8.402.497 6.597 6.597 0 0 1-1.258 1.977c-.035.039-.074.078-.113.117-2.578 2.383-6.488 2.355-8.902-.055l-.465-.464a6.424 6.424 0 0 1-1.418 2.156 6.295 6.295 0 0 1-4.473 1.847v.001zm-1.707-4.606c.93.922 2.496.918 3.422-.007.937-.938.95-2.465.031-3.551a1.955 1.955 0 0 1 .168-2.7 1.956 1.956 0 0 1 2.703.055l4.504 4.504c.938.938 2.367.934 3.426 0 .758-.883.969-2.332.008-3.293-.762-.762-.762-2 0-2.762.762-.761 2-.761 2.761 0l3.52 3.52c.45.45 1.059.695 1.715.695.66 0 1.27-.246 1.715-.695.449-.45.695-1.031.695-1.644 0-.614-.246-1.2-.695-1.645a1.955 1.955 0 0 1-.012-2.75 1.952 1.952 0 0 1 2.75-.035l4.223 4.082.023.023c.93.93 2.504.93 3.434 0 .925-.925.93-2.488.011-3.422l-3.504-3.363-.027-.027-3.402-3.403a1.792 1.792 0 0 1-.235-.285 2.28 2.28 0 0 1-.285-.234L32.466 5.105l-.816.222c-4.977 1.368-10.61 2.91-14.891.653l-.04-.016L4.69 17.995l1.234 4.32 14.988 14.988.02.02 4.496 4.637z"/></svg></svg><svg width="5" height="6" xmlns="http://www.w3.org/2000/svg" xmlns:xlink="http://www.w3.org/1999/xlink" xmlns:svgjs="http://svgjs.com/svgjs" viewBox="0 0.501 5 4.999" fill="#2b8fe5" x="1117" y="4315"><svg xmlns="http://www.w3.org/2000/svg" xmlns:xlink="http://www.w3.org/1999/xlink" width="5" height="6" viewBox="0.074 0.952 4.166 4.165"><path paint-order="stroke fill markers" fill-rule="evenodd" d="M.903 4.547l-.258-.262c-.761-.762-.761-2 0-2.761.762-.762 2-.762 2.762 0l.262.261c.761.762.761 2 0 2.762a1.961 1.961 0 0 1-2.766 0z"/></svg></svg><svg width="8" height="7" xmlns="http://www.w3.org/2000/svg" xmlns:xlink="http://www.w3.org/1999/xlink" xmlns:svgjs="http://svgjs.com/svgjs" viewBox="0 0.143 8 6.713" fill="#2b8fe5" x="1086" y="4286"><svg xmlns="http://www.w3.org/2000/svg" xmlns:xlink="http://www.w3.org/1999/xlink" width="8" height="7" viewBox="0.942 0.951 6.161 5.17"><path paint-order="stroke fill markers" fill-rule="evenodd" d="M2.895 6.12c-.68 0-1.32-.355-1.68-.952a1.956 1.956 0 0 1 .18-2.25l.703-.844c.04-.047.078-.09.121-.13l.422-.42a1.956 1.956 0 0 1 2.668-.09l1.125.984a1.955 1.955 0 0 1-.965 3.398c-.468.078-.89.117-1.261.152-.356.035-.66.063-.93.117a2.08 2.08 0 0 1-.383.036z"/></svg></svg><svg width="41" height="41" xmlns="http://www.w3.org/2000/svg" xmlns:xlink="http://www.w3.org/1999/xlink" xmlns:svgjs="http://svgjs.com/svgjs" viewBox="0.073 0 40.855 41" fill="#2b8fe5" x="1053" y="4274"><svg xmlns="http://www.w3.org/2000/svg" xmlns:xlink="http://www.w3.org/1999/xlink" width="41" height="41" viewBox="0.999 0.418 39.668 39.809"><path paint-order="stroke fill markers" fill-rule="evenodd" d="M13.794 40.227c-.52 0-1.016-.207-1.383-.57L1.571 28.812a1.954 1.954 0 0 1-.004-2.759L26.485.993a1.953 1.953 0 0 1 1.383-.575h.004c.52 0 1.016.207 1.383.57l10.84 10.841c.75.75.765 1.96.031 2.726l-2.816 2.957a1.958 1.958 0 0 1-1.2.594c-5.043.559-6.785 2.059-7.003 2.773-.13.426.316.883.593 1.118a1.953 1.953 0 0 1 .125 2.863L15.18 39.645c-.367.37-.863.578-1.382.578l-.004.004zM5.708 27.426l8.078 8.078 12.027-12.141c-.644-1.137-.812-2.402-.437-3.621.5-1.637 2.418-4.465 9.594-5.426l1.019-1.07-8.11-8.11-22.17 22.29z"/></svg></svg><svg width="56" height="41" xmlns="http://www.w3.org/2000/svg" xmlns:xlink="http://www.w3.org/1999/xlink" xmlns:svgjs="http://svgjs.com/svgjs" viewBox="0 0.177 56 40.645" fill="#2b8fe5" x="1078" y="4283"><svg xmlns="http://www.w3.org/2000/svg" xmlns:xlink="http://www.w3.org/1999/xlink" width="56" height="41" viewBox="0.178 0.156 55.612 40.364"><path paint-order="stroke fill markers" fill-rule="evenodd" d="M44.688 40.52c-.5 0-1-.192-1.383-.57l-23.84-23.845c-.27.075-.543.149-.816.223-3.235.887-6.582 1.805-9.711 1.805-2.074 0-3.809-.399-5.309-1.223C1.06 15.54-.222 13.285.29 11.027c.465-2.074 2.782-5.62 13.052-6.094h.035c1.191-.03 2.136-.714 3.582-1.82 1.718-1.316 3.86-2.957 7.097-2.957 1.66 0 3.426.426 5.371 1.305l.958-.516a1.95 1.95 0 0 1 2.308.34L55.22 23.812c.492.492.684 1.203.508 1.875l-1.547 5.914c-.09.34-.27.652-.52.899l-7.601 7.46a1.969 1.969 0 0 1-1.371.56zM20.047 11.973c.512 0 1.012.199 1.383.57l23.27 23.27 5.836-5.73 1.129-4.31L30.958 5.072l-.551.297a1.948 1.948 0 0 1-1.809.023c-1.738-.883-3.265-1.328-4.539-1.328-1.914 0-3.215.996-4.719 2.152-1.558 1.196-3.328 2.551-5.832 2.625-7.226.336-9.238 2.313-9.402 3.048-.102.449.465 1.101 1.375 1.585.008.004.02.008.027.016.91.5 2.032.746 3.434.746 2.602 0 5.691-.848 8.676-1.668.652-.18 1.3-.355 1.937-.523.16-.051.328-.07.492-.07v-.001z"/></svg></svg><svg width="40" height="41" xmlns="http://www.w3.org/2000/svg" xmlns:xlink="http://www.w3.org/1999/xlink" xmlns:svgjs="http://svgjs.com/svgjs" viewBox="0 0.502 40 39.995" fill="#2b8fe5" x="1107" y="4272"><svg xmlns="http://www.w3.org/2000/svg" xmlns:xlink="http://www.w3.org/1999/xlink" width="40" height="41" viewBox="0.078 0.589 39.669 39.664"><path paint-order="stroke fill markers" fill-rule="evenodd" d="M26.954 40.254c-.5 0-1-.192-1.383-.57L.65 14.76c-.761-.761-.761-2 0-2.761L11.49 1.16a1.95 1.95 0 0 1 1.383-.57c.52 0 1.016.206 1.383.57l24.922 24.918c.367.367.57.863.57 1.382 0 .52-.207 1.016-.57 1.384l-10.84 10.84c-.387.378-.887.57-1.383.57zM4.794 13.379l22.16 22.16 8.078-8.078L12.872 5.3l-8.078 8.078z"/></svg></svg><svg width="5" height="10" xmlns="http://www.w3.org/2000/svg" xmlns:xlink="http://www.w3.org/1999/xlink" xmlns:svgjs="http://svgjs.com/svgjs" viewBox="0.352 0 4.296 10" fill="#f0c331" x="1097" y="4253"><svg xmlns="http://www.w3.org/2000/svg" xmlns:xlink="http://www.w3.org/1999/xlink" width="5" height="10" viewBox="0.142 0 3.906 9.094"><path paint-order="stroke fill markers" fill-rule="evenodd" d="M2.095 9.094A1.954 1.954 0 0 1 .142 7.14V1.953a1.954 1.954 0 0 1 3.906 0v5.188a1.954 1.954 0 0 1-1.953 1.953z"/></svg></svg><svg width="9" height="7" xmlns="http://www.w3.org/2000/svg" xmlns:xlink="http://www.w3.org/1999/xlink" xmlns:svgjs="http://svgjs.com/svgjs" viewBox="0 0.005 9 6.99" fill="#f0c331" x="1112" y="4264"><svg xmlns="http://www.w3.org/2000/svg" xmlns:xlink="http://www.w3.org/1999/xlink" width="9" height="7" viewBox="0.25 0.277 8.416 6.536"><path paint-order="stroke fill markers" fill-rule="evenodd" d="M2.204 6.813a1.952 1.952 0 0 1-.984-3.64L5.727.542a1.953 1.953 0 1 1 1.969 3.375l-4.508 2.63c-.312.179-.652.265-.984.265z"/></svg></svg><svg width="9" height="7" xmlns="http://www.w3.org/2000/svg" xmlns:xlink="http://www.w3.org/1999/xlink" xmlns:svgjs="http://svgjs.com/svgjs" viewBox="0 0.005 9 6.99" fill="#f0c331" x="1077" y="4264"><svg xmlns="http://www.w3.org/2000/svg" xmlns:xlink="http://www.w3.org/1999/xlink" width="9" height="7" viewBox="0.527 0.277 8.416 6.536"><path paint-order="stroke fill markers" fill-rule="evenodd" d="M6.985 6.813c-.336 0-.672-.086-.98-.266L1.497 3.918A1.953 1.953 0 1 1 3.466.543l4.507 2.63a1.952 1.952 0 0 1-.988 3.64z"/></svg></svg><svg width="6" height="8" xmlns="http://www.w3.org/2000/svg" xmlns:xlink="http://www.w3.org/1999/xlink" xmlns:svgjs="http://svgjs.com/svgjs" viewBox="0 0.384 6 7.233" fill="#f0c331" x="1105" y="4258"><svg xmlns="http://www.w3.org/2000/svg" xmlns:xlink="http://www.w3.org/1999/xlink" width="6" height="8" viewBox="0.41 0.484 5.486 6.613"><path paint-order="stroke fill markers" fill-rule="evenodd" d="M2.36 7.098A1.953 1.953 0 0 1 .676 4.16l1.579-2.708A1.952 1.952 0 1 1 5.63 3.422L4.05 6.129c-.367.621-1.019.969-1.69.969H2.36z"/></svg></svg><svg width="6" height="8" xmlns="http://www.w3.org/2000/svg" xmlns:xlink="http://www.w3.org/1999/xlink" xmlns:svgjs="http://svgjs.com/svgjs" viewBox="0 0.383 6 7.234" fill="#f0c331" x="1087" y="4258"><svg xmlns="http://www.w3.org/2000/svg" xmlns:xlink="http://www.w3.org/1999/xlink" width="6" height="8" viewBox="0.219 0.484 5.486 6.614"><path paint-order="stroke fill markers" fill-rule="evenodd" d="M3.751 7.098a1.953 1.953 0 0 1-1.688-.969L.485 3.422A1.953 1.953 0 1 1 3.86 1.453L5.44 4.16A1.953 1.953 0 0 1 3.75 7.098z"/></svg></svg><svg width="11" height="11" xmlns="http://www.w3.org/2000/svg" xmlns:xlink="http://www.w3.org/1999/xlink" xmlns:svgjs="http://svgjs.com/svgjs" fill="#f0c331" x="1054" y="4270"><svg xmlns="http://www.w3.org/2000/svg" xmlns:xlink="http://www.w3.org/1999/xlink" width="11" height="11" viewBox="0.95 0.578 9.766 9.765"><path paint-order="stroke fill markers" fill-rule="evenodd" d="M5.833 10.344A4.89 4.89 0 0 1 .95 5.46 4.89 4.89 0 0 1 5.833.578a4.89 4.89 0 0 1 4.883 4.883 4.89 4.89 0 0 1-4.883 4.883zm0-5.86a.977.977 0 1 0 0 1.954.977.977 0 0 0 0-1.953z"/></svg></svg><svg width="12" height="13" xmlns="http://www.w3.org/2000/svg" xmlns:xlink="http://www.w3.org/1999/xlink" xmlns:svgjs="http://svgjs.com/svgjs" viewBox="0 0.5 12 12" fill="#f0c331" x="1131" y="4262"><svg xmlns="http://www.w3.org/2000/svg" xmlns:xlink="http://www.w3.org/1999/xlink" width="12" height="13" viewBox="0.122 0.765 11.719 11.719"><path paint-order="stroke fill markers" fill-rule="evenodd" d="M5.981 12.484a5.867 5.867 0 0 1-5.86-5.86c0-3.23 2.63-5.859 5.86-5.859 3.23 0 5.86 2.629 5.86 5.86 0 3.23-2.63 5.859-5.86 5.859zm0-7.813a1.954 1.954 0 1 0 .001 3.908 1.954 1.954 0 0 0-.001-3.908z"/></svg></svg><svg width="4" height="5" xmlns="http://www.w3.org/2000/svg" xmlns:xlink="http://www.w3.org/1999/xlink" xmlns:svgjs="http://svgjs.com/svgjs" viewBox="0 0.5 4 4" fill="#f0c331" x="1135" y="4297"><svg xmlns="http://www.w3.org/2000/svg" xmlns:xlink="http://www.w3.org/1999/xlink" width="4" height="5" viewBox="0.028 0.925 3.904 3.904"><path paint-order="stroke fill markers" fill-rule="evenodd" d="M.6 4.258c-.763-.762-.763-2 0-2.762.76-.761 1.999-.761 2.76 0 .762.762.762 2 0 2.762a1.955 1.955 0 0 1-2.76 0z"/></svg></svg><svg width="5" height="5" xmlns="http://www.w3.org/2000/svg" xmlns:xlink="http://www.w3.org/1999/xlink" xmlns:svgjs="http://svgjs.com/svgjs" fill="#f0c331" x="1062" y="4299"><svg xmlns="http://www.w3.org/2000/svg" width="5" height="5" viewBox="0.762 0.878 3.904 3.904"><path paint-order="stroke fill markers" fill-rule="evenodd" d="M1.333 4.21c-.762-.76-.762-2 0-2.76.762-.763 2-.763 2.762 0 .761.76.761 2 0 2.76a1.954 1.954 0 0 1-2.762 0z"/></svg></svg></svg>