<svg width="91" height="90" xmlns="http://www.w3.org/2000/svg" xmlns:xlink="http://www.w3.org/1999/xlink" xmlns:svgjs="http://svgjs.com/svgjs" viewBox="1334 4258 91 90"><svg width="24" height="24" xmlns="http://www.w3.org/2000/svg" xmlns:xlink="http://www.w3.org/1999/xlink" xmlns:svgjs="http://svgjs.com/svgjs" fill="#2b8fe5" x="1368" y="4295"><svg xmlns="http://www.w3.org/2000/svg" xmlns:xlink="http://www.w3.org/1999/xlink" width="24" height="24" viewBox="0.469 0.402 23.156 23.156"><path paint-order="stroke fill markers" fill-rule="evenodd" d="M12.047.402C5.664.402.469 5.598.469 11.981c0 6.386 5.195 11.577 11.578 11.577 6.387 0 11.578-5.195 11.578-11.577C23.625 5.598 18.43.402 12.047.402zm0 19.156c-4.18 0-7.578-3.398-7.578-7.578s3.398-7.578 7.578-7.578 7.578 3.399 7.578 7.578c0 4.18-3.402 7.578-7.578 7.578z"/></svg></svg><svg width="24" height="24" xmlns="http://www.w3.org/2000/svg" xmlns:xlink="http://www.w3.org/1999/xlink" xmlns:svgjs="http://svgjs.com/svgjs" fill="#f0c331" x="1401" y="4295"><svg xmlns="http://www.w3.org/2000/svg" xmlns:xlink="http://www.w3.org/1999/xlink" width="24" height="24" viewBox="0.84 0.402 23.156 23.156"><path paint-order="stroke fill markers" fill-rule="evenodd" d="M12.418 23.558c6.387 0 11.578-5.195 11.578-11.577 0-6.383-5.195-11.579-11.578-11.579C6.03.402.84 5.598.84 11.981c0 6.386 5.191 11.577 11.578 11.577zm0-19.156c4.18 0 7.578 3.399 7.578 7.579s-3.398 7.578-7.578 7.578S4.84 16.16 4.84 11.98c0-4.18 3.398-7.579 7.578-7.579z"/></svg></svg><svg width="91" height="28" xmlns="http://www.w3.org/2000/svg" xmlns:xlink="http://www.w3.org/1999/xlink" xmlns:svgjs="http://svgjs.com/svgjs" viewBox="0 0.313 91 27.375" fill="#2b8fe5" x="1334" y="4320"><svg xmlns="http://www.w3.org/2000/svg" xmlns:xlink="http://www.w3.org/1999/xlink" width="91" height="28" viewBox="0.999 0.141 89.999 27.074"><path paint-order="stroke fill markers" fill-rule="evenodd" d="M84.156.152h-6.344-.004A9.863 9.863 0 0 0 70.39 3.52l-5.238 5.992c-.7.8-1.676 1.277-2.723 1.39V7.863c0-4.25-3.465-7.707-7.726-7.707h-1.246c-.797 0-.844 0-7.415 6.567L40.05.73a2.002 2.002 0 0 0-1.554-.583c-.258.008-1.13.004-1.13.004-4.25 0-7.706 3.457-7.706 7.707v3.047c-1.082-.09-2.098-.574-2.817-1.402l-5.238-5.992A9.85 9.85 0 0 0 14.191.14h-.004-6.348C4.07.152 1 3.215 1 6.984v18.23c0 1.106.895 2 2 2h17.156c1.106 0 2-.894 2-2v-4.949l.133.121a6.271 6.271 0 0 0 2.203 1.27v3.558a1.999 1.999 0 1 0 4 0V22h6.442c.09 0 .18-.007.27-.015a3.5 3.5 0 0 0 .312.015h21.07c.082 0 .164-.007.246-.011.078.004.156.011.238.011h6.441v3.215a1.999 1.999 0 1 0 4 0v-3.558a6.22 6.22 0 0 0 2.2-1.27l.133-.12v4.948c0 1.106.894 2 2 2h17.156c1.105 0 2-.894 2-2V6.984c0-3.77-3.07-6.832-6.844-6.832h.001zM37.371 4.16c.144 0 .293 0 .445-.004l6.813 6.813a1.999 1.999 0 0 0 2.828 0c2.281-2.281 5.531-5.528 6.82-6.809h.43c2.055 0 3.726 1.66 3.726 3.707v3.086H57.07a5.53 5.53 0 0 0-5.523 5.524c0 .53.078 1.038.219 1.523H40.238a5.46 5.46 0 0 0 .22-1.523 5.53 5.53 0 0 0-5.524-5.524h-1.27V7.867a3.713 3.713 0 0 1 3.707-3.707zm-18.273 7.957a2 2 0 0 0-2.68 2.969l1.739 1.57v6.559H5V6.985a2.842 2.842 0 0 1 2.843-2.836H14.196c1.687 0 3.293.73 4.406 2.004l5.238 5.992a8.218 8.218 0 0 0 6.18 2.809h4.922c.84 0 1.523.683 1.523 1.523 0 .84-.683 1.523-1.523 1.523h-8.441a2.249 2.249 0 0 1-1.52-.586l-5.883-5.297zM87 23.215H73.844v-6.558l1.738-1.57a2 2 0 0 0-2.68-2.969l-5.874 5.3a2.258 2.258 0 0 1-1.52.586h-8.441c-.84 0-1.524-.683-1.524-1.523 0-.84.684-1.524 1.524-1.524h4.926a8.205 8.205 0 0 0 6.18-2.808l5.238-5.996c1.109-1.27 2.718-2 4.406-2h6.351a2.842 2.842 0 0 1 2.844 2.836l-.008 16.227H87z"/></svg></svg><svg width="24" height="24" xmlns="http://www.w3.org/2000/svg" xmlns:xlink="http://www.w3.org/1999/xlink" xmlns:svgjs="http://svgjs.com/svgjs" fill="#f0c331" x="1335" y="4295"><svg xmlns="http://www.w3.org/2000/svg" xmlns:xlink="http://www.w3.org/1999/xlink" width="24" height="24" viewBox="0.004 0.402 23.156 23.156"><path paint-order="stroke fill markers" fill-rule="evenodd" d="M.004 11.98c0 6.387 5.195 11.578 11.578 11.578 6.387 0 11.578-5.195 11.578-11.577C23.16 5.598 17.965.402 11.582.402 5.195.402.004 5.598.004 11.981zm19.156 0c0 4.18-3.399 7.579-7.578 7.579-4.18 0-7.578-3.4-7.578-7.578 0-4.18 3.398-7.579 7.578-7.579s7.578 3.399 7.578 7.579z"/></svg></svg><svg width="42" height="38" xmlns="http://www.w3.org/2000/svg" xmlns:xlink="http://www.w3.org/1999/xlink" xmlns:svgjs="http://svgjs.com/svgjs" viewBox="0.079 0 41.842 38" fill="#2b8fe5" x="1347" y="4258"><svg xmlns="http://www.w3.org/2000/svg" xmlns:xlink="http://www.w3.org/1999/xlink" width="42" height="38" viewBox="0.579 1 40.664 36.93"><path paint-order="stroke fill markers" fill-rule="evenodd" d="M31.719 1H10.11C4.856 1 .579 5.27.579 10.52v12.327c0 5.031 3.933 9.157 8.89 9.489l-.84 3.066a1.998 1.998 0 0 0 2.77 2.34l11.609-5.375h8.71c5.25 0 9.52-4.27 9.52-9.52l.004-12.328C41.238 5.27 36.97 1 31.72 1zm5.52 21.848a5.526 5.526 0 0 1-5.52 5.52H22.57c-.012 0-.024.003-.032.003-.07 0-.14.012-.21.02-.063.008-.13.012-.188.023-.05.012-.098.031-.149.047-.078.023-.16.047-.234.082-.008.004-.016.004-.023.008l-8.106 3.754.387-1.41c.004-.02.004-.036.008-.055.015-.07.027-.14.035-.211.008-.067.02-.133.02-.2 0-.019.007-.038.007-.062 0-.043-.012-.082-.012-.12-.003-.071-.007-.145-.02-.216a2.593 2.593 0 0 0-.1-.367 1.5 1.5 0 0 0-.083-.18c-.027-.054-.054-.109-.09-.163-.035-.056-.074-.106-.113-.16a2.25 2.25 0 0 0-.12-.15 2.347 2.347 0 0 0-.286-.253c-.055-.04-.113-.074-.172-.11a1.287 1.287 0 0 0-.16-.085 1.995 1.995 0 0 0-.211-.082c-.035-.012-.07-.032-.106-.04-.02-.003-.039-.003-.058-.011a1.879 1.879 0 0 0-.203-.036 1.3 1.3 0 0 0-.207-.019c-.02 0-.04-.008-.059-.008h-1.969c-3.05 0-5.53-2.476-5.53-5.52V10.52c0-3.043 2.48-5.52 5.53-5.52H31.72a5.526 5.526 0 0 1 5.52 5.52l.004 12.328h-.005z"/></svg></svg><svg width="15" height="5" xmlns="http://www.w3.org/2000/svg" xmlns:xlink="http://www.w3.org/1999/xlink" xmlns:svgjs="http://svgjs.com/svgjs" viewBox="0 0.309 15 4.382" fill="#f0c331" x="1356" y="4268"><svg xmlns="http://www.w3.org/2000/svg" xmlns:xlink="http://www.w3.org/1999/xlink" width="15" height="5" viewBox="0.379 0.265 13.691 4"><path paint-order="stroke fill markers" fill-rule="evenodd" d="M2.379 4.265h9.691c1.106 0 2-.894 2-2 0-1.105-.894-2-2-2H2.38a1.999 1.999 0 1 0 0 4z"/></svg></svg><svg width="8" height="5" xmlns="http://www.w3.org/2000/svg" xmlns:xlink="http://www.w3.org/1999/xlink" xmlns:svgjs="http://svgjs.com/svgjs" viewBox="0 0.199 8 4.602" fill="#f0c331" x="1372" y="4268"><svg xmlns="http://www.w3.org/2000/svg" xmlns:xlink="http://www.w3.org/1999/xlink" width="8" height="5" viewBox="0.488 0.265 6.953 4"><path paint-order="stroke fill markers" fill-rule="evenodd" d="M5.441.265H2.488c-1.106 0-2 .895-2 2 0 1.106.894 2 2 2H5.44a2.001 2.001 0 0 0 0-4z"/></svg></svg><svg width="9" height="5" xmlns="http://www.w3.org/2000/svg" xmlns:xlink="http://www.w3.org/1999/xlink" xmlns:svgjs="http://svgjs.com/svgjs" viewBox="0 0.16 9 4.68" fill="#f0c331" x="1356" y="4277"><svg xmlns="http://www.w3.org/2000/svg" xmlns:xlink="http://www.w3.org/1999/xlink" width="9" height="5" viewBox="0.379 0.102 7.691 4"><path paint-order="stroke fill markers" fill-rule="evenodd" d="M6.07.102H2.379a1.999 1.999 0 1 0 0 4H6.07a1.999 1.999 0 1 0 0-4z"/></svg></svg><svg width="14" height="5" xmlns="http://www.w3.org/2000/svg" xmlns:xlink="http://www.w3.org/1999/xlink" xmlns:svgjs="http://svgjs.com/svgjs" viewBox="0 0.311 14 4.378" fill="#f0c331" x="1366" y="4277"><svg xmlns="http://www.w3.org/2000/svg" width="14" height="5" viewBox="0.652 0.102 12.789 4"><path paint-order="stroke fill markers" fill-rule="evenodd" d="M11.441.102h-8.79a1.999 1.999 0 1 0 0 4h8.79a1.999 1.999 0 1 0 0-4z"/></svg></svg></svg>