<svg width="100" height="100" xmlns="http://www.w3.org/2000/svg" xmlns:xlink="http://www.w3.org/1999/xlink" xmlns:svgjs="http://svgjs.com/svgjs" viewBox="1610 4252 100 100"><svg width="100" height="100" xmlns="http://www.w3.org/2000/svg" xmlns:xlink="http://www.w3.org/1999/xlink" xmlns:svgjs="http://svgjs.com/svgjs" viewBox="0 0.004 100 99.992" fill="#2b8fe5" stroke-miterlimit="100" stroke="#092772" x="1610" y="4252"><svg xmlns="http://www.w3.org/2000/svg" xmlns:xlink="http://www.w3.org/1999/xlink" width="100" height="100" viewBox="1 1 98.782 98.775"><path paint-order="stroke fill markers" fill-rule="evenodd" d="M10.195 60.43a41.02 41.02 0 0 0 4.489 10.965 10.198 10.198 0 0 0-2.344 6.485 10.2 10.2 0 0 0 2.98 7.277 10.2 10.2 0 0 0 7.297 3.043c2.38 0 4.637-.805 6.461-2.289a40.94 40.94 0 0 0 10.926 4.586c.5 5.18 4.867 9.254 10.18 9.277h.04c5.292 0 9.671-4.035 10.214-9.191a40.978 40.978 0 0 0 10.965-4.493 10.182 10.182 0 0 0 6.531 2.348c2.727 0 5.293-1.058 7.23-2.976 3.77-3.747 4.028-9.715.75-13.759a40.997 40.997 0 0 0 4.587-10.925c5.176-.497 9.258-4.871 9.281-10.18.023-5.301-4-9.696-9.191-10.254a41.124 41.124 0 0 0-4.489-10.97 10.167 10.167 0 0 0 2.34-6.484 10.205 10.205 0 0 0-2.977-7.273 10.215 10.215 0 0 0-7.296-3.043c-2.38 0-4.637.805-6.461 2.289a40.942 40.942 0 0 0-10.926-4.586C60.286 5.097 55.914 1.023 50.559 1c-5.29 0-9.668 4.039-10.215 9.191a41.093 41.093 0 0 0-10.965 4.488 10.177 10.177 0 0 0-6.532-2.343 10.214 10.214 0 0 0-7.23 2.976 10.218 10.218 0 0 0-3.043 7.25c-.008 2.399.8 4.672 2.29 6.508A40.965 40.965 0 0 0 10.276 40C5.101 40.5 1.023 44.871 1 50.18c-.024 5.3 4.015 9.703 9.195 10.25 0 0 0 0 0 0zm8.371-17.449a10.24 10.24 0 0 0-3.671-2.37 36.28 36.28 0 0 1 3.648-8.692c1.332.617 2.793.953 4.305.953 2.726 0 5.293-1.059 7.23-2.977 3.125-3.097 3.824-7.719 2.117-11.515a36.305 36.305 0 0 1 8.723-3.575 10.241 10.241 0 0 0 2.34 3.688 10.185 10.185 0 0 0 7.25 3.039h.047c4.379 0 8.12-2.77 9.593-6.649a36.375 36.375 0 0 1 8.696 3.649 10.205 10.205 0 0 0-.953 4.262 10.205 10.205 0 0 0 2.976 7.273 10.208 10.208 0 0 0 7.297 3.043c1.48 0 2.91-.32 4.223-.918a36.383 36.383 0 0 1 3.574 8.73c-3.906 1.446-6.71 5.188-6.73 9.582a10.22 10.22 0 0 0 2.976 7.278 10.186 10.186 0 0 0 3.664 2.371 36.47 36.47 0 0 1-3.644 8.687 10.202 10.202 0 0 0-4.301-.949 10.195 10.195 0 0 0-7.23 2.98 10.195 10.195 0 0 0-3.044 7.25 10.25 10.25 0 0 0 .915 4.27 36.303 36.303 0 0 1-8.727 3.574 10.306 10.306 0 0 0-9.629-6.73c-4.379 0-8.121 2.77-9.594 6.644a36.371 36.371 0 0 1-8.695-3.648 10.14 10.14 0 0 0 .95-4.258 10.212 10.212 0 0 0-2.977-7.277 10.191 10.191 0 0 0-7.293-3.043c-1.481 0-2.91.324-4.223.918a36.284 36.284 0 0 1-3.574-8.727c3.906-1.445 6.71-5.187 6.73-9.582a10.165 10.165 0 0 0-2.969-7.281s0 0 0 0zm.028 38.926a5.62 5.62 0 0 1-1.64-4.003 5.63 5.63 0 0 1 1.671-3.993 5.616 5.616 0 0 1 3.98-1.64c1.52 0 2.946.593 4.016 1.676a5.613 5.613 0 0 1 1.64 4.003 5.624 5.624 0 0 1-1.675 3.993c-2.14 2.124-5.863 2.113-7.992-.035 0 0 0 0 0 0zm31.625 13.25h-.024a5.668 5.668 0 0 1-5.632-5.68c.003-.273.046-.53.081-.792v-.004a5.658 5.658 0 0 1 5.598-4.832 5.656 5.656 0 0 1 5.63 5.68c-.009 3.101-2.544 5.628-5.653 5.628 0 0 0 0 0 0zM81.918 82.18c-2.149 2.125-5.871 2.11-8-.035a5.623 5.623 0 0 1-1.64-4.008 5.612 5.612 0 0 1 1.671-3.988 5.619 5.619 0 0 1 3.984-1.64c1.52 0 2.946.597 4.016 1.671a5.668 5.668 0 0 1-.031 8s0 0 0 0zm13.25-31.605c-.016 3.106-2.551 5.633-5.653 5.633v.078c-.007-.004-.02-.004-.027-.008v-.07c-.113 0-.223-.027-.332-.035h-.004c-.16-.035-.32-.05-.476-.05a5.566 5.566 0 0 1-3.18-1.59 5.617 5.617 0 0 1-1.64-4.008c.011-3.106 2.55-5.63 5.679-5.63a5.66 5.66 0 0 1 5.633 5.68s0 0 0 0zM82.188 18.86a5.613 5.613 0 0 1 1.64 4.004 5.63 5.63 0 0 1-1.676 3.992c-2.144 2.13-5.87 2.114-8-.035a5.63 5.63 0 0 1-1.64-4.004 5.636 5.636 0 0 1 1.672-3.992 5.623 5.623 0 0 1 3.98-1.64c1.524 0 2.953.593 4.024 1.675 0 0 0 0 0 0zM50.583 5.606c3.12.016 5.648 2.563 5.632 5.68a5.664 5.664 0 0 1-5.652 5.633h-.023a5.597 5.597 0 0 1-3.992-1.672 5.623 5.623 0 0 1-1.641-4.008c.012-3.105 2.55-5.633 5.676-5.633 0 0 0 0 0 0zM18.868 18.584a5.608 5.608 0 0 1 3.98-1.641c1.52 0 2.946.594 4.02 1.672a5.664 5.664 0 0 1-.035 8c-2.145 2.125-5.872 2.109-8-.04a5.615 5.615 0 0 1-1.641-4.003 5.628 5.628 0 0 1 1.676-3.988s0 0 0 0zm-7.57 25.972a5.636 5.636 0 0 1 3.992 1.672 5.64 5.64 0 0 1 1.64 4.008c-.015 3.105-2.55 5.633-5.656 5.633v.148c-.008.004-.016.004-.023.008l-.004-.152a5.668 5.668 0 0 1-5.633-5.68c.016-3.106 2.555-5.637 5.683-5.637 0 0 0 0 0 0z"/></svg></svg><svg width="48" height="48" xmlns="http://www.w3.org/2000/svg" xmlns:xlink="http://www.w3.org/1999/xlink" xmlns:svgjs="http://svgjs.com/svgjs" viewBox="0.001 0 47.997 48" fill="#f0c331" stroke-miterlimit="100" stroke="#092772" x="1636" y="4278"><svg xmlns="http://www.w3.org/2000/svg" width="48" height="48" viewBox="0.797 0.791 47.176 47.178"><path paint-order="stroke fill markers" fill-rule="evenodd" d="M24.285 47.97h.105a23.412 23.412 0 0 0 16.602-6.84c4.477-4.434 6.953-10.345 6.98-16.645.032-6.504-2.53-12.566-7.214-17.082a2.31 2.31 0 0 0-3.262.058 2.312 2.312 0 0 0 .059 3.266c3.766 3.629 5.828 8.511 5.805 13.738-.024 4.914-1.91 9.523-5.305 13.05a13.853 13.853 0 0 0-3.82-7.351 14.175 14.175 0 0 0-3.457-2.547c1.82-1.66 2.976-4.039 2.988-6.683a9.026 9.026 0 0 0-2.64-6.45c-1.711-1.726-3.997-2.683-6.47-2.695-4.996 0-9.078 4.07-9.097 9.07a9.051 9.051 0 0 0 2.633 6.45c.035.035.078.07.117.105-3.938 1.89-6.856 5.559-7.695 9.973-3.231-3.418-5.215-8.024-5.196-13.09a18.865 18.865 0 0 1 5.614-13.391c3.597-3.567 8.347-5.531 13.434-5.5 1.332.035 2.312-1.024 2.32-2.297a2.31 2.31 0 0 0-2.3-2.317C18.27.722 12.25 3.195 7.777 7.628 3.305 12.066.825 17.976.798 24.281.747 37.284 11.286 47.909 24.285 47.968v.001zm.394-31.563a4.46 4.46 0 0 1 3.172 1.329 4.494 4.494 0 0 1 1.305 3.183 4.505 4.505 0 0 1-4.496 4.473h-.016a4.436 4.436 0 0 1-3.164-1.328 4.495 4.495 0 0 1 3.2-7.656s0 0 0 0zM24.32 30.65h.04a9.29 9.29 0 0 1 6.597 2.766 9.283 9.283 0 0 1 2.707 6.625c-.004.281.055.547.144.793a18.849 18.849 0 0 1-9.425 2.52H24.3a18.832 18.832 0 0 1-9.48-2.614c.09-.246.148-.508.152-.785.028-5.137 4.215-9.305 9.348-9.305 0 0 0 0 0 0z"/></svg></svg></svg>