<svg width="78" height="78" xmlns="http://www.w3.org/2000/svg" xmlns:xlink="http://www.w3.org/1999/xlink" xmlns:svgjs="http://svgjs.com/svgjs" viewBox="921 1288 78 78"><svg width="78" height="78" xmlns="http://www.w3.org/2000/svg" xmlns:xlink="http://www.w3.org/1999/xlink" xmlns:svgjs="http://svgjs.com/svgjs" viewBox="0 0.625 78 76.75" fill="#2b8fe5" x="921" y="1288"><svg xmlns="http://www.w3.org/2000/svg" xmlns:xlink="http://www.w3.org/1999/xlink" width="78" height="78" viewBox="0 1 78 76.75"><path paint-order="stroke fill markers" fill-rule="evenodd" d="M74.04 43.636v-32.55C74.04 5.509 69.53 1 63.954 1H10.086C4.51 1.083 0 5.593 0 11.086v40.26c0 5.575 4.51 10.086 10.086 10.086h25.828l10.905 10.905c3.443 3.527 8.036 5.413 12.956 5.413 9.513 0 17.382-7.296 18.122-16.725.163-2.05.083-10.002.083-11.889v-.083c-.086-2.546-1.726-4.676-3.94-5.416v-.001zM4.017 11.086a6.052 6.052 0 0 1 6.066-6.066h53.952a6.052 6.052 0 0 1 6.066 6.066v7.626H4.017v-7.626zm0 40.26V22.81H70.02v20.992c-.657-2.46-2.87-4.263-5.493-4.263-.737 0-1.477.163-2.213.41-.657-2.46-2.87-4.263-5.493-4.263-.737 0-1.393.163-2.05.327V32.57a5.668 5.668 0 0 0-5.656-5.657 5.668 5.668 0 0 0-5.656 5.657v20.414l-2.053-2.05a5.693 5.693 0 0 0-8.036 0c-1.067 1.067-1.64 2.46-1.64 4.017 0 .903.163 1.723.573 2.46H10.086a6.055 6.055 0 0 1-6.07-6.067zm70.187 9.019c-.41 7.626-6.806 13.612-14.512 13.612-3.936 0-7.626-1.557-10.332-4.346l-8.28-8.203-4.02-4.016-1.066-1.067a1.92 1.92 0 0 1-.573-1.393c0-.573.246-1.067.573-1.393a1.92 1.92 0 0 1 1.393-.573c.493 0 1.067.163 1.393.573l5.083 5.083c.247.246.573.41.903.493.164 0 .327.083.494 0 .163 0 .326-.083.493-.163.163-.084.327-.164.41-.247.163-.083.246-.247.326-.326.164-.327.327-.657.327-.984l.003-24.927c0-1.147.904-2.05 2.05-2.05 1.147 0 2.05.903 2.05 2.05v16.479c0 .983.82 1.803 1.803 1.803a1.82 1.82 0 0 0 1.803-1.803V41.26c0-1.147.904-2.05 2.05-2.05 1.147 0 2.05.903 2.05 2.05v7.706c0 .983.82 1.803 1.803 1.803a1.82 1.82 0 0 0 1.803-1.803v-3.853c0-1.147.904-2.05 2.05-2.05 1.147 0 2.05.903 2.05 2.05v5.74c0 .983.82 1.802 1.803 1.802.737 0 1.393-.41 1.64-1.066.083-.083.083-.247.163-.41 0-.164.084-.247.084-.41v-1.887-.41c.083-.41.246-.736.573-.983.327-.327.903-.573 1.393-.573H72.397c.083 0 .163.083.247.083h.083c.083.083.247.083.327.163l.246.247.084.083c.083.084.083.164.163.164l.083.083c.084.083.084.163.164.326.083.247.163.494.163.82.247 3.934.247 7.706.247 11.48v-.001z"/></svg></svg><svg width="6" height="6" xmlns="http://www.w3.org/2000/svg" xmlns:xlink="http://www.w3.org/1999/xlink" xmlns:svgjs="http://svgjs.com/svgjs" fill="#092772" x="930" y="1297"><svg xmlns="http://www.w3.org/2000/svg" xmlns:xlink="http://www.w3.org/1999/xlink" width="6" height="6" viewBox="0.103 0.364 5.083 5.083"><path paint-order="stroke fill markers" fill-rule="evenodd" d="M5.185 2.905c0 3.389-5.082 3.389-5.082 0 0-3.388 5.082-3.388 5.082 0z"/></svg></svg><svg width="6" height="6" xmlns="http://www.w3.org/2000/svg" xmlns:xlink="http://www.w3.org/1999/xlink" xmlns:svgjs="http://svgjs.com/svgjs" fill="#092772" x="937" y="1297"><svg xmlns="http://www.w3.org/2000/svg" xmlns:xlink="http://www.w3.org/1999/xlink" width="6" height="6" viewBox="0.482 0.364 5.083 5.083"><path paint-order="stroke fill markers" fill-rule="evenodd" d="M5.565 2.905c0 3.389-5.083 3.389-5.083 0 0-3.388 5.083-3.388 5.083 0z"/></svg></svg><svg width="6" height="6" xmlns="http://www.w3.org/2000/svg" xmlns:xlink="http://www.w3.org/1999/xlink" xmlns:svgjs="http://svgjs.com/svgjs" fill="#092772" x="944" y="1297"><svg xmlns="http://www.w3.org/2000/svg" width="6" height="6" viewBox="0.778 0.364 5.083 5.083"><path paint-order="stroke fill markers" fill-rule="evenodd" d="M5.86 2.905c0 3.389-5.082 3.389-5.082 0 0-3.388 5.083-3.388 5.083 0z"/></svg></svg></svg>