<svg width="142" height="74" xmlns="http://www.w3.org/2000/svg" xmlns:xlink="http://www.w3.org/1999/xlink" xmlns:svgjs="http://svgjs.com/svgjs" viewBox="889 6794 142 74"><svg width="70" height="70" xmlns="http://www.w3.org/2000/svg" xmlns:xlink="http://www.w3.org/1999/xlink" xmlns:svgjs="http://svgjs.com/svgjs" fill="#5cc9f6" x="889" y="6797"><svg xmlns="http://www.w3.org/2000/svg" xmlns:xlink="http://www.w3.org/1999/xlink" width="70" height="70" viewBox="0 0.678 69.27 69.27"><path paint-order="stroke fill markers" fill-rule="evenodd" d="M62.74 31.893L38.055 7.207C29.35-1.5 15.234-1.5 6.53 7.207c-8.705 8.705-8.705 22.82 0 31.525L31.216 63.42c8.705 8.705 22.82 8.705 31.525 0 8.705-8.706 8.705-22.82 0-31.525z"/></svg></svg><svg width="46" height="46" xmlns="http://www.w3.org/2000/svg" xmlns:xlink="http://www.w3.org/1999/xlink" xmlns:svgjs="http://svgjs.com/svgjs" fill="#fa8807" x="985" y="6813"><svg xmlns="http://www.w3.org/2000/svg" xmlns:xlink="http://www.w3.org/1999/xlink" width="46" height="46" viewBox="0.653 0.518 44.585 44.585"><path paint-order="stroke fill markers" fill-rule="evenodd" d="M38.709 7.047c-8.706-8.706-22.82-8.706-31.526 0s-8.706 22.822 0 31.527c8.706 8.706 22.82 8.706 31.526 0 8.706-8.705 8.706-22.821 0-31.527z"/></svg></svg><svg width="69" height="48" xmlns="http://www.w3.org/2000/svg" xmlns:xlink="http://www.w3.org/1999/xlink" xmlns:svgjs="http://svgjs.com/svgjs" viewBox="0 0.276 69 47.448" fill="#00aeeb" x="892" y="6813"><svg xmlns="http://www.w3.org/2000/svg" xmlns:xlink="http://www.w3.org/1999/xlink" width="69" height="48" viewBox="0.509 0.472 68.242 46.926"><path paint-order="stroke fill markers" fill-rule="evenodd" d="M37.328 6.981l-9.217 9.217-.04-.042A22.295 22.295 0 0 1 .51 18.976a22.344 22.344 0 0 0 3.022 3.756l9.95 9.95.1-.038 14.753 14.754L68.751 6.981c-8.677-8.68-22.747-8.68-31.423 0z"/></svg></svg><svg width="108" height="70" xmlns="http://www.w3.org/2000/svg" xmlns:xlink="http://www.w3.org/1999/xlink" xmlns:svgjs="http://svgjs.com/svgjs" viewBox="0 0.264 108 69.472" fill="#0080ca" x="906" y="6797"><svg xmlns="http://www.w3.org/2000/svg" xmlns:xlink="http://www.w3.org/1999/xlink" width="108" height="70" viewBox="0.006 0.711 107.57 69.196"><path paint-order="stroke fill markers" fill-rule="evenodd" d="M101.85 7.404l-.02-.02a21.907 21.907 0 0 0-31.412-.075L30.023 47.705C21.873 55.848 8.86 56.44.006 49.072L14.334 63.4l.017-.014c8.694 8.694 22.79 8.694 31.485 0L85.18 24.043l.065.019c.305-.344.616-.684.946-1.014a22.277 22.277 0 0 1 21.386-5.81 22.18 22.18 0 0 0-5.725-9.834z"/></svg></svg><svg width="64" height="55" xmlns="http://www.w3.org/2000/svg" xmlns:xlink="http://www.w3.org/1999/xlink" xmlns:svgjs="http://svgjs.com/svgjs" viewBox="0 0.154 64 54.692" fill="#ee5913" x="951" y="6813"><svg xmlns="http://www.w3.org/2000/svg" xmlns:xlink="http://www.w3.org/1999/xlink" width="64" height="55" viewBox="0.609 0.517 62.764 53.635"><path paint-order="stroke fill markers" fill-rule="evenodd" d="M62.562 1.24A22.275 22.275 0 0 0 41.176 7.05c-.33.33-.641.67-.946 1.014l-.063-.02L.825 47.39c-.072.071-.147.137-.216.206l.025.029c8.706 8.705 22.82 8.704 31.525 0l24.687-24.687A22.264 22.264 0 0 0 62.562 1.24z"/></svg></svg><svg width="8" height="8" xmlns="http://www.w3.org/2000/svg" xmlns:xlink="http://www.w3.org/1999/xlink" xmlns:svgjs="http://svgjs.com/svgjs" fill="#5cc9f6" x="943" y="6804"><svg xmlns="http://www.w3.org/2000/svg" xmlns:xlink="http://www.w3.org/1999/xlink" width="8" height="8" viewBox="0.614 0.418 7.104 7.104"><path paint-order="stroke fill markers" fill-rule="evenodd" d="M4.166.418a3.552 3.552 0 1 1 0 7.104 3.552 3.552 0 0 1 0-7.104z"/></svg></svg><svg width="5" height="5" xmlns="http://www.w3.org/2000/svg" xmlns:xlink="http://www.w3.org/1999/xlink" xmlns:svgjs="http://svgjs.com/svgjs" fill="#5cc9f6" x="937" y="6800"><svg xmlns="http://www.w3.org/2000/svg" xmlns:xlink="http://www.w3.org/1999/xlink" width="5" height="5" viewBox="0.047 0.06 4.556 4.556"><path paint-order="stroke fill markers" fill-rule="evenodd" d="M2.325.06a2.278 2.278 0 1 1 0 4.556 2.278 2.278 0 0 1 0-4.556z"/></svg></svg><svg width="5" height="5" xmlns="http://www.w3.org/2000/svg" xmlns:xlink="http://www.w3.org/1999/xlink" xmlns:svgjs="http://svgjs.com/svgjs" fill="#5cc9f6" x="942" y="6794"><svg xmlns="http://www.w3.org/2000/svg" width="5" height="5" viewBox="0.078 0 4.556 4.556"><path paint-order="stroke fill markers" fill-rule="evenodd" d="M2.356 0a2.278 2.278 0 1 1 0 4.556 2.278 2.278 0 0 1 0-4.556z"/></svg></svg></svg>