<svg width="79" height="77" xmlns="http://www.w3.org/2000/svg" xmlns:xlink="http://www.w3.org/1999/xlink" xmlns:svgjs="http://svgjs.com/svgjs" viewBox="361 1289 79 77"><svg width="79" height="77" xmlns="http://www.w3.org/2000/svg" xmlns:xlink="http://www.w3.org/1999/xlink" xmlns:svgjs="http://svgjs.com/svgjs" viewBox="0 0.013 79 76.974" fill="#2b8fe5" x="361" y="1289"><svg xmlns="http://www.w3.org/2000/svg" xmlns:xlink="http://www.w3.org/1999/xlink" width="79" height="77" viewBox="0 0 78 76"><path paint-order="stroke fill markers" fill-rule="evenodd" d="M77.98 27.498a1.601 1.601 0 0 0 0-.35v-.058a1.439 1.439 0 0 0-.111-.302v-.048L71.07 13.945a6.56 6.56 0 0 0-5.806-3.497h-11.36V6.523a6.51 6.51 0 0 0-1.92-4.612 6.567 6.567 0 0 0-4.631-1.91h-16.79c-3.617 0-6.55 2.92-6.55 6.522v3.922l-10.023.003a6.56 6.56 0 0 0-5.554 3.09L.18 26.624v.058c-.05.09-.096.185-.13.283v.109a1.639 1.639 0 0 0-.049.309v4.214a7.853 7.853 0 0 0 5.554 7.485v28.763c0 2.163.86 4.236 2.4 5.765a8.207 8.207 0 0 0 5.79 2.39h50.513c2.172 0 4.255-.86 5.79-2.39a8.135 8.135 0 0 0 2.4-5.765v-28.59-.14.003A7.866 7.866 0 0 0 78 31.634l-.02-4.136zM27.288 6.523c0-1.8 1.465-3.262 3.276-3.262h16.789c.87 0 1.702.344 2.316.956.614.611.96 1.443.96 2.306v11.416h-23.34V6.523zM11.213 15.24a3.279 3.279 0 0 1 2.777-1.533h10.022v5.861c0 .433.173.847.48 1.153.307.306.723.478 1.158.478h26.616a1.64 1.64 0 0 0 1.158-.478c.308-.306.48-.72.48-1.153v-5.86h11.36c1.216 0 2.332.672 2.899 1.745l5.47 10.406-69.071-.003 6.65-10.616zM62.25 31.63v1.377c0 3.67-2.988 6.641-6.67 6.641-3.686 0-6.674-2.971-6.674-6.64v-3.88h13.334l.01 2.503zm-16.626 1.377c0 3.67-2.988 6.641-6.67 6.641-3.685 0-6.67-2.971-6.67-6.64v-3.88h13.34v3.88zm-16.616 0c-.128 3.577-3.078 6.415-6.673 6.415-3.593 0-6.542-2.838-6.67-6.415v-3.88h13.35l-.007 3.88zM3.212 31.632v-2.504H12.4v2.504c0 2.526-2.057 4.574-4.594 4.574-2.537 0-4.594-2.048-4.594-4.574zm61.041 41.105H48.328V59.044c0-5.15-4.197-9.327-9.37-9.327-5.172 0-9.37 4.176-9.37 9.327v13.693H13.662c-2.713 0-4.914-2.191-4.914-4.892V39.4a7.835 7.835 0 0 0 4.594-2.216 9.928 9.928 0 0 0 8.289 5.698 9.948 9.948 0 0 0 9.025-4.45 9.942 9.942 0 0 0 8.308 4.476 9.939 9.939 0 0 0 8.308-4.476 9.947 9.947 0 0 0 9.022 4.444 9.934 9.934 0 0 0 8.285-5.692 7.856 7.856 0 0 0 4.594 2.21v28.451c0 2.701-2.2 4.892-4.913 4.892h-.006zm-31.39 0V59.044c0-3.35 2.73-6.065 6.095-6.065 3.365 0 6.094 2.714 6.094 6.065v13.693H32.864zm41.842-41.105c0 2.526-2.057 4.574-4.594 4.574-2.537 0-4.594-2.048-4.594-4.574v-2.504h9.188v2.504z"/></svg></svg><svg width="13" height="15" xmlns="http://www.w3.org/2000/svg" xmlns:xlink="http://www.w3.org/1999/xlink" xmlns:svgjs="http://svgjs.com/svgjs" viewBox="0 0.154 13 14.692" fill="#092772" x="374" y="1338"><svg xmlns="http://www.w3.org/2000/svg" xmlns:xlink="http://www.w3.org/1999/xlink" width="13" height="15" viewBox="0.044 0.657 12.527 14.157"><path paint-order="stroke fill markers" fill-rule="evenodd" d="M6.307.657A6.27 6.27 0 0 0 .044 6.912v6.263a1.638 1.638 0 0 0 1.64 1.64h9.247a1.639 1.639 0 0 0 1.64-1.64V6.912A6.27 6.27 0 0 0 6.307.657zm2.985 10.888l-5.97-.003v-4.63a2.983 2.983 0 0 1 2.985-2.985A2.983 2.983 0 0 1 9.292 6.91v4.634z"/></svg></svg><svg width="13" height="15" xmlns="http://www.w3.org/2000/svg" xmlns:xlink="http://www.w3.org/1999/xlink" xmlns:svgjs="http://svgjs.com/svgjs" viewBox="0 0.151 13 14.698" fill="#092772" x="413" y="1338"><svg xmlns="http://www.w3.org/2000/svg" xmlns:xlink="http://www.w3.org/1999/xlink" width="13" height="15" viewBox="0.347 0.657 12.527 14.164"><path paint-order="stroke fill markers" fill-rule="evenodd" d="M7.135.657h-1.05a5.737 5.737 0 0 0-5.738 5.74V13.18a1.64 1.64 0 0 0 1.64 1.64h9.247a1.639 1.639 0 0 0 1.64-1.64V6.396A5.739 5.739 0 0 0 7.136.657zm2.46 10.888l-5.97-.003V6.396a2.46 2.46 0 0 1 2.46-2.46h1.05a2.46 2.46 0 0 1 2.46 2.46v5.15z"/></svg></svg><svg width="14" height="4" xmlns="http://www.w3.org/2000/svg" xmlns:xlink="http://www.w3.org/1999/xlink" xmlns:svgjs="http://svgjs.com/svgjs" viewBox="0 0.222 14 3.556" fill="#092772" x="393" y="1297"><svg xmlns="http://www.w3.org/2000/svg" width="14" height="4" viewBox="0.506 0.607 12.912 3.279"><path paint-order="stroke fill markers" fill-rule="evenodd" d="M11.778.607H2.146c-.903 0-1.64.737-1.64 1.64 0 .906.737 1.64 1.64 1.64h9.632a1.639 1.639 0 1 0 0-3.28z"/></svg></svg></svg>