<svg width="94" height="79" xmlns="http://www.w3.org/2000/svg" xmlns:xlink="http://www.w3.org/1999/xlink" xmlns:svgjs="http://svgjs.com/svgjs" viewBox="1473 1288 94 79"><svg width="55" height="79" xmlns="http://www.w3.org/2000/svg" xmlns:xlink="http://www.w3.org/1999/xlink" xmlns:svgjs="http://svgjs.com/svgjs" viewBox="0.011 0 54.977 79" fill="#2b8fe5" x="1492" y="1288"><svg xmlns="http://www.w3.org/2000/svg" xmlns:xlink="http://www.w3.org/1999/xlink" width="55" height="79" viewBox="0.637 0.001 54.301 78.028"><path paint-order="stroke fill markers" fill-rule="evenodd" d="M47.087 42.376l-10.543-2.992v-3.399a10.676 10.676 0 0 0 3.312-5.293c.168-.636.301-1.148.406-1.554a3.751 3.751 0 0 0 2.887-3.083l.645-4.05a4.17 4.17 0 0 0-.957-3.352 4.43 4.43 0 0 0-.489-.488c.274-1.055.418-2.137.426-3.238v-.055a14.196 14.196 0 0 0-4.77-10.383 2.2 2.2 0 0 0-.851-1.543A14.458 14.458 0 0 0 28.434 0h-1.3c-2.57 0-4.918 1.148-6.989 2.539a2.18 2.18 0 0 0-1.73.414c-3.27 2.5-5.524 7.289-5.614 11.977.012 1.094.157 2.18.438 3.23a4.17 4.17 0 0 0-1.457 3.847l.644 4.052a3.763 3.763 0 0 0 2.887 3.074c.106.406.238.918.414 1.555a10.603 10.603 0 0 0 3.313 5.293v3.398L8.489 42.372C3.934 43.35.637 47.446.637 52.154V72.09c0 3.274 2.668 5.938 5.95 5.938H48.98c3.281 0 5.957-2.664 5.957-5.938V52.154c.008-4.704-3.293-8.801-7.851-9.778zm-30.043-17.52h-.375l-.524-3.313a2.144 2.144 0 0 0 1.602-.925 2.162 2.162 0 0 0 .262-2l-.274-.77c.04-.054.082-.105.113-.176l2.137-4.644a6.75 6.75 0 0 0 4.926-1.676l1.387.957a12.186 12.186 0 0 0 9.226 1.914l2.324 3.637c0 .008.008.008.008.012-.012.05-.023.093-.043.144l-.218.562a2.184 2.184 0 0 0 1.852 2.96l-.532 3.314h-.367c-1.055 0-1.957.719-2.145 1.758-.02.094-.137.57-.77 2.957a6.275 6.275 0 0 1-3.105 3.918l-1.758.937a6.315 6.315 0 0 1-5.937 0l-1.758-.937a6.271 6.271 0 0 1-3.113-3.918c-.649-2.45-.75-2.883-.762-2.918a2.195 2.195 0 0 0-2.156-1.793zM50.57 72.094c0 .863-.711 1.562-1.582 1.562H6.594a1.57 1.57 0 0 1-1.574-1.562V52.156c0-2.668 1.867-4.988 4.437-5.512.055-.011.105-.023.156-.039L20.84 43.41a3.326 3.326 0 0 0 2.582-3.25v-1.555a10.68 10.68 0 0 0 8.75 0v1.555c0 1.562 1.07 2.914 2.57 3.25l11.23 3.195c.051.012.102.024.157.039 2.574.524 4.445 2.844 4.445 5.512l-.003 19.938z"/></svg></svg><svg width="36" height="64" xmlns="http://www.w3.org/2000/svg" xmlns:xlink="http://www.w3.org/1999/xlink" xmlns:svgjs="http://svgjs.com/svgjs" viewBox="0.185 0 35.629 64" fill="#092772" x="1473" y="1296"><svg xmlns="http://www.w3.org/2000/svg" xmlns:xlink="http://www.w3.org/1999/xlink" width="36" height="64" viewBox="0 0.793 35.066 62.989"><path paint-order="stroke fill markers" fill-rule="evenodd" d="M20.98 35.587c1.602-1.625 3.65-2.82 5.981-3.336l7.27-2.063a9.24 9.24 0 0 0 .804-2.039c.012-.038.02-.074.032-.113a12.68 12.68 0 0 1-2.45-4.793 2.93 2.93 0 0 1-.074-.273c-.543.3-.945.82-1.062 1.476-.012.043-.094.399-.676 2.586a5.253 5.253 0 0 1-2.606 3.29l-1.543.823a5.28 5.28 0 0 1-4.98 0l-1.55-.824a5.266 5.266 0 0 1-2.606-3.289c-.57-2.136-.657-2.523-.664-2.55a2.193 2.193 0 0 0-2.157-1.79h-.105l-.387-2.437a2.19 2.19 0 0 0 1.586-2.891l-.23-.644c0-.008.007-.012.011-.02l1.832-3.977a6.09 6.09 0 0 0 4.227-1.43l1.105.759a10.81 10.81 0 0 0 5.852 1.906 6.412 6.412 0 0 1 .492-3.125 7.775 7.775 0 0 1-4.574-1.356L22.36 8.001a1.56 1.56 0 0 0-1.977.176l-.602.586A3.002 3.002 0 0 1 16.9 9.5a1.54 1.54 0 0 0-.532-.051c.262-.488.551-.938.868-1.344.418-.031.824-.18 1.175-.445 1.512-1.157 3.477-2.488 5.176-2.488h1.145c1.539 0 3.054.417 4.367 1.199.082.386.27.75.543 1.043-.008-.165-.024-.32-.024-.477v-.07c.032-1.614.29-3.23.727-4.781A13.017 13.017 0 0 0 24.731.793h-1.145c-2.289 0-4.375 1-6.21 2.22a2.182 2.182 0 0 0-1.618.429c-2.945 2.242-4.969 6.543-5.05 10.75.011.937.132 1.855.355 2.758-.125.113-.239.23-.352.356a3.945 3.945 0 0 0-.898 3.164l.57 3.57a3.586 3.586 0 0 0 2.586 2.882c.086.332.195.731.32 1.22a9.642 9.642 0 0 0 2.914 4.71v2.676L7.117 38.11C2.981 39.008 0 42.727 0 46.99v11.3a5.496 5.496 0 0 0 5.5 5.492h12.035v-4.375H5.5c-.625 0-1.125-.5-1.125-1.117v-11.3c0-2.228 1.555-4.165 3.7-4.603.05-.011.105-.023.156-.039l9.875-2.804c.113-.024.21-.063.312-.102a12.152 12.152 0 0 1 2.156-3.414c.133-.145.27-.297.407-.441z"/></svg></svg><svg width="36" height="64" xmlns="http://www.w3.org/2000/svg" xmlns:xlink="http://www.w3.org/1999/xlink" xmlns:svgjs="http://svgjs.com/svgjs" viewBox="0.156 0 35.688 64" fill="#092772" x="1531" y="1296"><svg xmlns="http://www.w3.org/2000/svg" xmlns:xlink="http://www.w3.org/1999/xlink" width="36" height="64" viewBox="0.63 0.803 35.113 62.968"><path paint-order="stroke fill markers" fill-rule="evenodd" d="M28.638 38.119l-9.094-2.582V32.86a9.688 9.688 0 0 0 2.914-4.71c.125-.489.23-.888.32-1.22a3.551 3.551 0 0 0 2.586-2.886l.57-3.57a3.907 3.907 0 0 0-1.242-3.508c.227-.899.336-1.825.352-2.758v-.063a12.757 12.757 0 0 0-4.219-9.262 2.166 2.166 0 0 0-.836-1.437A12.95 12.95 0 0 0 12.157.803h-1.144c-2.063 0-3.957.812-5.649 1.863.367 1.332.582 2.726.606 4.156v.102c0 .226-.02.445-.032.667 1.5-1.144 3.407-2.413 5.075-2.413h1.144c1.54 0 3.055.417 4.367 1.199.106.508.395.969.813 1.289a8.458 8.458 0 0 1 2.46 3c-.363-.207-.8-.27-1.226-.145a7.783 7.783 0 0 1-6.644-1.043L9.778 8.002a1.571 1.571 0 0 0-1.976.175l-.602.586a2.96 2.96 0 0 1-1.45.77 6.32 6.32 0 0 1 1.212 2.914A6.08 6.08 0 0 0 9.048 11.3l1.105.757A10.88 10.88 0 0 0 18.29 13.8l1.887 2.949c-.008.03-.02.054-.024.086l-.195.492a2.193 2.193 0 0 0 .238 2.023c.32.461.8.782 1.336.899l-.395 2.437h-.101c-1.055 0-1.957.708-2.145 1.75-.011.043-.093.399-.675 2.586a5.253 5.253 0 0 1-2.606 3.29l-1.55.824a5.272 5.272 0 0 1-4.977 0l-1.551-.824a5.24 5.24 0 0 1-2.606-3.29c-.57-2.136-.664-2.523-.668-2.55a2.186 2.186 0 0 0-1.21-1.57l-.086.335A12.7 12.7 0 0 1 .63 27.873c.023.086.043.168.07.261a9.48 9.48 0 0 0 .836 2.094l7.074 2.008a12.008 12.008 0 0 1 6.547 3.965c.812.95 1.48 2.02 1.977 3.176.156.062.32.117.488.156l9.883 2.805c.05.011.105.023.156.039 2.144.445 3.707 2.375 3.707 4.601V58.28c0 .617-.508 1.118-1.133 1.118h-12.19v4.374h12.19c3.04 0 5.508-2.46 5.508-5.492v-11.3c.008-4.25-2.98-7.965-7.106-8.86z"/></svg></svg><svg width="10" height="26" xmlns="http://www.w3.org/2000/svg" xmlns:xlink="http://www.w3.org/1999/xlink" xmlns:svgjs="http://svgjs.com/svgjs" viewBox="0.615 0 8.771 26" fill="#092772" x="1515" y="1332"><svg xmlns="http://www.w3.org/2000/svg" width="10" height="26" viewBox="0.438 0.077 8.711 25.823"><path paint-order="stroke fill markers" fill-rule="evenodd" d="M8.376 3.392c0 .016-.004.027-.004.043a.927.927 0 0 1-.031.176.08.08 0 0 1-.012.043.563.563 0 0 1-.086.175c-.004.012-.012.02-.02.028v.004l-.043.054-1.62 3.723 2.59 9.324-1.024 2.098-3.328 6.84-3.336-6.836-1.024-2.098 2.594-9.328L1.411 3.92l-.043-.058s0-.004-.004-.004c-.004-.012-.012-.016-.016-.028a.736.736 0 0 1-.085-.164v-.004c-.02-.058-.032-.128-.043-.191v-.031a.872.872 0 0 1 .011-.2c.016-.062.04-.125.063-.183 0-.004 0-.015.004-.02l.039-.062c.011-.016.015-.027.027-.043.012-.004.016-.016.02-.027l.015-.016c.04-.043.078-.078.125-.117.004-.004.012-.016.02-.02.004-.004.011-.004.015-.011.004-.004.012-.012.016-.012L4.356.208a.798.798 0 0 1 .88 0l2.776 2.52c.004 0 .004.004.012.012.012 0 .016.003.02.011.011.004.015.016.02.02.046.039.085.074.116.113.004.012.016.016.02.02.004.011.016.02.02.03a.688.688 0 0 1 .101.208c.012.015.016.039.02.059a.505.505 0 0 1 .035.19z"/></svg></svg></svg>